<?xml version="1.0" standalone="no"?>
<!DOCTYPE svg PUBLIC "-//W3C//DTD SVG 20010904//EN"
 "http://www.w3.org/TR/2001/REC-SVG-20010904/DTD/svg10.dtd">
<svg version="1.0" xmlns="http://www.w3.org/2000/svg"
 width="247.000000pt" height="263.000000pt" viewBox="0 0 247.000000 263.000000"
 preserveAspectRatio="xMidYMid meet">

<g transform="translate(0.000000,263.000000) scale(0.100000,-0.100000)"
fill="#fff" stroke="none">
<path d="M1665 2159 c-77 -3 -204 -7 -283 -8 -81 0 -152 -6 -164 -12 -22 -12
-57 -82 -58 -115 0 -19 -9 -23 -72 -33 -131 -21 -198 -79 -198 -172 0 -27 3
-49 7 -49 3 0 21 11 40 26 18 14 50 32 71 41 42 18 152 20 194 4 25 -9 30 -7
67 36 l39 46 -21 28 c-18 25 -19 32 -8 55 11 26 14 26 79 22 162 -12 258 -66
287 -161 22 -72 37 -220 29 -289 l-7 -58 -252 0 -252 0 28 102 c16 56 29 104
29 108 0 3 -24 18 -54 32 l-55 27 -10 -32 c-5 -18 -17 -61 -26 -97 -36 -146
-31 -136 -83 -155 -61 -22 -124 -58 -189 -106 -73 -54 -114 -129 -233 -424
-56 -137 -120 -285 -143 -329 -70 -132 -186 -243 -295 -282 -32 -12 37 -13
458 -11 l495 2 55 26 c130 62 198 152 348 462 121 248 162 322 231 410 44 57
101 97 139 97 10 0 61 -21 112 -46 94 -45 95 -46 186 -42 l92 3 -22 30 c-48
69 -160 175 -209 200 -41 20 -65 25 -128 25 -49 0 -80 4 -87 13 -5 6 -34 104
-63 216 -47 183 -51 207 -38 226 8 12 38 57 67 100 50 74 61 97 45 93 -5 -1
-71 -5 -148 -9z"/>
</g>
</svg>
