<?xml version="1.0" standalone="no"?>
<!DOCTYPE svg PUBLIC "-//W3C//DTD SVG 20010904//EN"
 "http://www.w3.org/TR/2001/REC-SVG-20010904/DTD/svg10.dtd">
<svg version="1.0" xmlns="http://www.w3.org/2000/svg"
 width="500.000000pt" height="500.000000pt" viewBox="0 0 500.000000 500.000000"
 preserveAspectRatio="xMidYMid meet">

<g transform="translate(0.000000,500.000000) scale(0.100000,-0.100000)"
fill="#000000" stroke="none">
<path d="M0 2500 l0 -2500 2500 0 2500 0 0 2500 0 2500 -2500 0 -2500 0 0
-2500z m3886 1885 c-34 -80 -141 -243 -250 -380 -29 -36 -29 -37 -17 -88 42
-169 186 -723 202 -779 27 -94 38 -98 221 -97 156 1 186 -5 288 -63 71 -40
190 -140 260 -220 72 -81 213 -259 208 -263 -1 -1 -93 -6 -203 -10 l-200 -7
-180 92 c-219 110 -260 119 -350 75 -162 -79 -354 -363 -614 -910 -250 -525
-285 -594 -357 -702 -134 -202 -306 -352 -486 -425 l-83 -33 -1060 -2 -1060
-2 70 20 c216 61 410 218 576 464 106 157 164 282 391 850 155 389 282 658
355 752 108 141 359 300 586 373 20 6 41 19 46 28 5 9 39 137 77 285 37 147
72 267 77 267 12 0 217 -98 234 -112 9 -7 8 -20 -2 -56 -52 -182 -105 -381
-105 -390 0 -9 134 -12 520 -12 486 0 521 1 528 18 13 31 8 452 -7 532 -19
108 -66 248 -101 303 -56 89 -217 165 -425 201 -102 18 -227 21 -255 6 -10 -5
-23 -25 -30 -44 -13 -40 5 -94 45 -136 l25 -26 -69 -84 c-97 -122 -89 -117
-174 -94 -53 14 -105 19 -197 19 -112 0 -131 -3 -186 -27 -62 -26 -146 -80
-216 -139 -35 -28 -39 -29 -45 -12 -5 10 -8 63 -8 118 0 84 4 108 23 147 63
127 208 201 445 226 49 6 91 13 94 16 4 3 10 34 15 68 16 118 91 231 162 243
17 3 272 10 566 16 294 5 558 14 585 18 97 16 97 16 81 -24z"/>
</g>
</svg>
