<?xml version="1.0" standalone="no"?>
<!DOCTYPE svg PUBLIC "-//W3C//DTD SVG 20010904//EN"
 "http://www.w3.org/TR/2001/REC-SVG-20010904/DTD/svg10.dtd">
<svg version="1.0" xmlns="http://www.w3.org/2000/svg"
 width="500.000000pt" height="500.000000pt" viewBox="0 0 500.000000 500.000000"
 preserveAspectRatio="xMidYMid meet">

<g transform="translate(0.000000,500.000000) scale(0.100000,-0.100000)"
fill="#000000" stroke="none">
<path d="M0 2500 l0 -2500 2500 0 2500 0 0 2500 0 2500 -2500 0 -2500 0 0
-2500z m3900 1913 c0 -31 -157 -274 -264 -408 l-29 -36 28 -112 c72 -283 186
-725 196 -755 18 -54 48 -62 211 -61 156 2 184 -5 288 -63 71 -40 190 -140
260 -220 78 -88 213 -258 209 -262 -2 -2 -94 -7 -204 -11 l-200 -7 -185 93
c-171 87 -189 94 -245 94 -81 0 -139 -30 -224 -114 -134 -134 -282 -383 -493
-824 -76 -161 -171 -357 -209 -437 -172 -355 -382 -581 -631 -682 l-83 -33
-1060 -2 c-1058 -2 -1060 -2 -993 17 227 65 410 213 582 470 107 159 160 274
388 845 155 389 282 658 355 752 103 134 318 277 531 353 51 18 97 40 101 49
5 9 39 136 77 284 39 153 73 267 79 267 13 0 213 -97 232 -112 12 -10 13 -6
-68 -294 -21 -78 -39 -146 -39 -153 0 -8 140 -11 520 -11 486 0 521 1 528 18
13 31 7 452 -7 532 -19 107 -65 247 -100 301 -59 94 -209 165 -431 204 -98 17
-223 20 -250 5 -11 -6 -24 -26 -29 -46 -12 -44 9 -104 46 -134 16 -12 22 -24
17 -32 -19 -32 -148 -180 -161 -185 -8 -3 -44 3 -81 13 -50 14 -99 19 -192 19
-112 0 -131 -3 -186 -27 -62 -26 -146 -80 -216 -139 -35 -28 -39 -29 -45 -12
-5 10 -8 63 -8 118 0 84 4 108 23 147 63 127 208 201 445 226 49 6 91 13 94
16 4 3 10 34 15 68 16 124 93 233 171 244 17 2 271 9 562 15 292 6 553 14 580
18 68 11 95 12 95 4z"/>
</g>
</svg>
