<?xml version="1.0" standalone="no"?>
<!DOCTYPE svg PUBLIC "-//W3C//DTD SVG 20010904//EN"
 "http://www.w3.org/TR/2001/REC-SVG-20010904/DTD/svg10.dtd">
<svg version="1.0" xmlns="http://www.w3.org/2000/svg"
 width="500.000000pt" height="500.000000pt" viewBox="0 0 500.000000 500.000000"
 preserveAspectRatio="xMidYMid meet">

<g transform="translate(0.000000,500.000000) scale(0.100000,-0.100000)"
fill="#000000" stroke="none">
<path d="M3805 4399 c-33 -4 -304 -12 -603 -18 -472 -9 -547 -13 -578 -27 -64
-31 -108 -108 -128 -229 l-12 -70 -98 -12 c-198 -25 -316 -71 -391 -155 -54
-61 -75 -120 -75 -217 0 -129 1 -129 79 -67 172 139 347 175 568 117 l71 -19
30 32 c16 17 52 60 81 94 l52 64 -30 34 c-49 56 -53 132 -9 174 27 25 80 26
225 4 198 -29 351 -86 426 -159 66 -64 110 -175 143 -360 21 -121 26 -482 6
-527 l-12 -28 -525 0 c-367 0 -525 3 -525 11 0 6 27 107 60 226 33 118 60 217
60 219 0 9 -223 115 -234 111 -6 -3 -30 -83 -54 -178 -24 -96 -56 -219 -70
-273 l-27 -99 -105 -42 c-137 -54 -210 -92 -312 -161 -120 -82 -163 -119 -213
-187 -96 -127 -148 -238 -370 -792 -237 -591 -298 -714 -454 -920 -97 -128
-260 -264 -380 -318 -25 -11 -73 -29 -106 -38 -58 -17 -28 -18 944 -18 1112
-1 1059 -4 1208 64 255 117 421 317 633 760 296 622 440 889 572 1063 83 110
133 155 213 193 97 47 123 41 360 -77 192 -96 173 -92 411 -79 l152 8 -87 110
c-177 226 -342 365 -484 409 -60 18 -83 20 -178 14 -122 -8 -181 3 -203 37
-14 22 -65 211 -177 659 l-60 236 89 119 c120 159 217 325 190 322 -7 -1 -40
-5 -73 -10z"/>
</g>
</svg>
